<svg xmlns="http://www.w3.org/2000/svg" xmlns:xlink="http://www.w3.org/1999/xlink" width="703.614" height="1275.945"><path transform="rotate(90)" style="fill:#4fdecf;fill-opacity:1;fill-rule:evenodd;stroke-width:37.4519;stroke-linecap:round;stroke-linejoin:round;stroke-dashoffset:271;paint-order:stroke fill markers" d="M0-718.206h1275.945V8.408H0z"/><g transform="matrix(0 1 -.97532 0 357.337 655.422)"><use xlink:href="#a" width="100" transform="matrix(1.1391 0 0 1 182.495 -370)" height="740"/><use xlink:href="#a" width="100" transform="matrix(1.1203 0 0 1 -22.514 -370)" height="740"/><use xlink:href="#a" width="100" transform="matrix(.6198 0 0 1 -99.49 -370)" height="740"/><use xlink:href="#a" width="100" transform="matrix(.6294 0 0 1 -615.372 -370)" height="740"/><use xlink:href="#a" width="100" transform="matrix(.5602 0 0 1 -216.51 -370)" height="740"/><use xlink:href="#a" width="100" transform="matrix(.5597 0 0 1 105.563 -370)" height="740"/><use xlink:href="#a" width="100" transform="matrix(.3397 0 0 1 321.515 -370)" height="740"/><use xlink:href="#a" width="100" transform="matrix(.3595 0 0 1 584.573 -370)" height="740"/><use xlink:href="#a" width="100" transform="matrix(.8 0 0 1 -470.449 -370)" height="740"/><use xlink:href="#a" width="100" transform="matrix(.3603 0 0 1 -519.467 -370)" height="740"/><use xlink:href="#a" width="100" transform="matrix(.78 0 0 1 -312.498 -370)" height="740"/><use xlink:href="#a" width="100" transform="matrix(1.2 0 0 1 369.502 -370)" height="740"/><use xlink:href="#a" width="100" transform="matrix(.36 0 0 1 -375.998 -365)" height="740"/><use xlink:href="#a" width="100" transform="matrix(.5604 0 0 1 515.532 -370)" height="740"/><use xlink:href="#a" width="100" transform="matrix(.8388 0 0 1 161.562 -370)" height="740"/><use xlink:href="#a" width="100" transform="matrix(1.1203 0 0 1 -22.514 -370)" height="740"/><use xlink:href="#a" width="100" transform="matrix(.6198 0 0 1 -116.49 -370)" height="740"/><use xlink:href="#a" width="100" transform="matrix(1.1194 0 0 1 -655.422 -370)" height="740"/><use xlink:href="#a" width="100" transform="matrix(.5602 0 0 1 -216.51 -370)" height="740"/><use xlink:href="#a" width="100" transform="matrix(1.3205 0 0 1 272.427 -370)" height="740"/><use xlink:href="#a" width="100" transform="matrix(.3595 0 0 1 584.573 -370)" height="740"/><use xlink:href="#a" width="100" transform="matrix(.8 0 0 1 -470.449 -370)" height="740"/><use xlink:href="#a" width="100" transform="matrix(.5998 0 0 1 -514.439 -370)" height="740"/><use xlink:href="#a" width="100" transform="matrix(.78 0 0 1 -372.498 -370)" height="740"/><use xlink:href="#a" width="100" transform="matrix(.8 0 0 1 -443.949 -365)" height="740"/><use xlink:href="#a" width="100" transform="matrix(.3595 0 0 1 -562.327 -370)" height="740"/><use xlink:href="#a" width="100" transform="matrix(1.3885 0 0 1 36.126 -370)" height="740"/><use xlink:href="#a" width="100" transform="matrix(1.5209 0 0 1 -256.047 -370)" height="740"/><use xlink:href="#a" width="100" transform="matrix(-.8 0 0 -1 -200.501 370)" height="740"/><use xlink:href="#a" width="100" transform="matrix(1.18 0 0 1 448.902 -370)" height="740"/></g><defs><path fill-rule="evenodd" fill-opacity=".396" fill="#14c396" d="M-50-370H50v740H-50v-740" transform="translate(50 370)" id="b"/><use xlink:href="#b" width="100" height="740" id="a"/></defs></svg>