<svg xmlns="http://www.w3.org/2000/svg" xmlns:xlink="http://www.w3.org/1999/xlink" viewBox="0 0 2065.2 321.45" height="1214.929" width="7805.48"><defs><path d="M171.15 4.35q-2 66.3-53.25 111.9-51.3 45.55-122.7 42.8-71.45-2.75-118.85-47.5Q-171.1 66.8-171.35-2.2T-119-116.8q52.55-45.65 123.65-42.15 71.1 3.45 119.8 50.2Q173.1-62 171.15 4.35" fill="#006492" fill-rule="evenodd" transform="translate(171.35 159.2)" id="a"/><path d="M-172.85-4.35q2-66.3 53.25-111.9 51.3-45.55 122.7-42.8 71.45 2.75 118.85 47.5Q169.4-66.8 169.65 2.2T117.3 116.8Q64.75 162.45-6.35 158.95q-71.1-3.45-119.8-50.2Q-174.8 62-172.85-4.35" fill="#006492" fill-rule="evenodd" transform="translate(172.9 159.2)" id="b"/><path d="M169.25 3.85q-2 66.3-52.75 112.9-50.8 46.55-122.2 43.8-71.45-2.75-118.55-45.9Q-171.35 71.45-170.8.6q.55-70.85 53.05-117.5 52.5-46.65 122.55-41.85 70.05 4.75 118.25 50.5 48.15 45.75 46.2 112.1" fill="#006492" fill-rule="evenodd" transform="translate(170.8 159.2)" id="c"/><path d="M171.15 4.35q-2 66.3-53.25 111.9-51.3 45.55-122.7 42.8-71.45-2.75-118.85-47.5Q-171.1 66.8-171.35-2.2T-119-116.8q52.55-45.65 123.65-42.15 71.1 3.45 119.8 50.2Q173.1-62 171.15 4.35" fill="#006492" fill-rule="evenodd" transform="translate(171.35 159.2)" id="d"/><path d="M-172.85-4.35q2-66.3 53.25-111.9 51.3-45.55 122.7-42.8 71.45 2.75 118.85 47.5Q169.4-66.8 169.65 2.2T117.3 116.8Q64.75 162.45-6.35 158.95q-71.1-3.45-119.8-50.2Q-174.8 62-172.85-4.35" fill="#006492" fill-rule="evenodd" transform="translate(172.9 159.2)" id="e"/><path d="M-172.35-3.9q2-66.3 52.75-112.9 50.8-46.55 122.2-43.8 71.45 2.75 119.55 46.4Q170.2-70.55 170.3.6q.1 71.15-54 117.05Q62.15 163.5-7.9 158.7q-70.05-4.75-118.25-50.5-48.15-45.75-46.2-112.1" fill="#006492" fill-rule="evenodd" transform="translate(172.45 160.75)" id="f"/></defs><use xlink:href="#a" width="342.55" transform="matrix(1.00474 0 0 1.00474 .001 .767)" height="318.4"/><use xlink:href="#b" width="342.55" transform="matrix(1.00474 0 0 1.00474 344.225 .774)" height="318.4"/><use xlink:href="#c" width="340.15" transform="matrix(1.01196 0 0 1.01196 688.406 -1.14)" height="319.9"/><use xlink:href="#d" width="342.55" transform="matrix(1.00474 0 0 1.00474 1032.601 .767)" height="318.4"/><use xlink:href="#e" width="342.55" transform="matrix(1.00474 0 0 1.00474 1376.825 .774)" height="318.4"/><use xlink:href="#f" width="342.75" transform="translate(1720.976 .086) scale(1.0043)" height="319.9"/></svg>