<?xml version="1.0" encoding="UTF-8" standalone="no"?>
<svg xmlns:xlink="http://www.w3.org/1999/xlink" height="81.6px" width="128.7px" xmlns="http://www.w3.org/2000/svg">
  <g transform="matrix(1.0, 0.0, 0.0, 1.0, 64.15, 35.6)">
    <path d="M-60.85 -33.95 L-54.05 -32.9 -54.3 -24.25 -60.9 -24.25 -60.85 -33.95 M-54.4 -21.15 L-55.3 8.85 -56.8 17.8 -55.55 17.95 -56.25 38.7 58.5 36.9 58.55 40.7 12.35 41.5 Q-15.45 41.9 -60.3 43.25 L-60.5 43.4 -61.15 -21.05 -54.4 -21.15" fill="#ffffff" fill-rule="evenodd" stroke="none"/>
    <path d="M58.5 36.9 L61.95 36.85 62.15 41.6 Q62.3 43.1 60.55 43.75 58.55 44.3 41.05 44.15 23.55 43.9 14.55 44.55 L-7.75 45.2 -24.0 45.35 -37.95 45.7 -50.15 46.0 -60.1 45.8 Q-62.6 45.95 -63.6 43.3 -64.45 10.1 -63.95 -34.4 L-60.85 -33.95 -60.9 -24.25 -54.3 -24.25 -54.4 -21.15 -61.15 -21.05 -60.5 43.4 -60.3 43.25 Q-15.45 41.9 12.35 41.5 L58.55 40.7 58.5 36.9" fill="#000000" fill-rule="evenodd" stroke="none"/>
    <path d="M-60.0 7.75 L59.65 25.6 Q59.4 33.1 59.45 37.85 L13.35 37.25 Q-14.5 36.85 -59.5 36.9 L-60.0 7.75" fill="#ffffff" fill-rule="evenodd" stroke="none"/>
    <path d="M59.65 25.6 L62.25 26.0 61.75 38.55 Q62.3 38.95 60.7 39.7 51.65 39.95 38.55 39.85 L8.1 39.55 -15.05 39.2 -33.3 39.0 -53.2 39.0 Q-61.5 39.05 -62.15 38.2 L-63.1 7.25 -60.0 7.75 -59.5 36.9 Q-14.5 36.85 13.35 37.25 L59.45 37.85 Q59.4 33.1 59.65 25.6" fill="#000000" fill-rule="evenodd" stroke="none"/>
    <path d="M64.55 -29.5 L64.1 -10.5 63.4 16.65 Q63.0 31.35 63.15 32.9 63.35 34.4 61.5 35.0 59.6 35.45 42.2 35.05 24.75 34.55 15.85 34.75 L-6.3 35.0 Q-19.6 35.05 -23.6 35.2 -27.6 35.35 -37.05 35.0 -46.5 34.65 -54.25 35.0 -62.0 35.35 -63.25 33.55 -63.15 2.9 -63.7 -35.45 -35.85 -35.75 -5.25 -35.4 L57.3 -34.75 61.05 -34.55 Q64.65 -36.05 64.55 -29.5 M-60.0 -32.25 L-60.35 30.45 Q-11.3 31.2 16.25 31.25 43.75 31.3 59.95 31.6 L60.35 0.65 Q60.4 -15.45 61.05 -30.75 48.55 -31.55 4.25 -32.3 -40.05 -33.05 -60.0 -32.25" fill="#000000" fill-rule="evenodd" stroke="none"/>
    <path d="M-60.0 -32.25 Q-40.05 -33.05 4.25 -32.3 48.55 -31.55 61.05 -30.75 60.4 -15.45 60.35 0.65 L59.95 31.6 Q43.75 31.3 16.25 31.25 -11.3 31.2 -60.35 30.45 L-60.0 -32.25" fill="#ffffff" fill-rule="evenodd" stroke="none"/>
  </g>
</svg>
