<?xml version="1.0" encoding="UTF-8" standalone="no"?>
<svg xmlns:xlink="http://www.w3.org/1999/xlink" height="81.6px" width="128.7px" xmlns="http://www.w3.org/2000/svg">
  <g transform="matrix(1.0, 0.0, 0.0, 1.0, 64.15, 35.6)">
    <path d="M64.55 -29.5 L64.1 -10.5 63.4 16.65 Q63.0 31.35 63.15 32.9 63.35 34.4 61.5 35.0 59.6 35.45 42.2 35.05 24.75 34.55 15.85 34.75 L-6.3 35.0 Q-19.6 35.05 -23.6 35.2 -27.6 35.35 -37.05 35.0 -46.5 34.65 -54.25 35.0 -62.0 35.35 -63.25 33.55 -63.15 2.9 -63.7 -35.45 -35.85 -35.75 -5.25 -35.4 L57.3 -34.75 61.05 -34.55 Q64.65 -36.05 64.55 -29.5 M-60.0 -32.25 L-60.35 30.45 Q-11.3 31.2 16.25 31.25 43.75 31.3 59.95 31.6 L60.35 0.65 Q60.4 -15.45 61.05 -30.75 48.55 -31.55 4.25 -32.3 -40.05 -33.05 -60.0 -32.25" fill="#000000" fill-rule="evenodd" stroke="none"/>
  </g>
</svg>
