<?xml version="1.0" encoding="UTF-8" standalone="no"?>
<svg xmlns:xlink="http://www.w3.org/1999/xlink" height="59.5px" width="20.75px" xmlns="http://www.w3.org/2000/svg">
  <g transform="matrix(1.0, 0.0, 0.0, 1.0, 75.55, 27.4)">
    <path d="M-60.75 9.5 L-62.5 9.85 Q-64.6 10.3 -66.85 11.55 L-62.7 12.55 -62.6 17.55 Q-66.9 16.8 -69.75 15.55 -72.5 14.45 -73.5 13.8 L-74.9 12.8 Q-75.2 12.45 -75.25 11.1 -75.3 9.7 -73.95 8.75 -72.55 7.85 -69.85 6.95 L-64.8 5.4 -60.5 4.2 Q-58.55 3.6 -57.3 3.75 -56.1 3.95 -55.5 4.65 -54.95 5.45 -55.2 6.35 -55.55 7.4 -56.6 8.15 -58.45 9.05 -60.75 9.5 M-60.4 24.35 L-62.2 24.7 Q-64.2 25.15 -66.55 26.4 L-62.15 27.8 -62.6 32.1 Q-66.6 31.65 -69.4 30.4 L-73.2 28.65 Q-74.3 28.1 -74.6 27.65 -74.9 27.3 -74.9 25.95 -74.95 24.55 -73.6 23.6 -72.25 22.7 -69.55 21.8 L-64.45 20.25 -60.15 19.05 Q-58.2 18.45 -56.95 18.6 -55.75 18.8 -55.2 19.5 -54.6 20.3 -54.9 21.2 -55.25 22.25 -56.3 23.0 -58.1 23.9 -60.4 24.35 M-61.05 -5.95 L-62.75 -5.6 Q-64.8 -5.15 -67.1 -3.85 L-63.1 -2.8 -63.4 2.1 Q-67.2 1.35 -69.9 0.1 -72.75 -1.0 -73.8 -1.65 -74.85 -2.2 -75.15 -2.65 -75.45 -3.0 -75.5 -4.35 -75.6 -5.75 -74.2 -6.7 -72.85 -7.6 -70.05 -8.5 L-65.0 -10.05 -60.65 -11.25 -57.55 -11.7 Q-56.3 -11.5 -55.75 -10.8 -55.2 -10.0 -55.45 -9.1 -55.8 -8.05 -56.85 -7.3 -58.7 -6.4 -61.05 -5.95 M-61.05 -21.6 L-62.85 -21.25 Q-64.9 -20.8 -67.2 -19.55 L-62.85 -18.15 -62.95 -13.5 Q-67.3 -14.3 -70.0 -15.55 -72.85 -16.65 -73.9 -17.3 -74.95 -17.85 -75.2 -18.3 -75.5 -18.65 -75.55 -20.0 -75.6 -21.4 -74.25 -22.35 -72.9 -23.25 -70.2 -24.15 L-65.1 -25.7 -60.75 -26.9 -57.55 -27.35 Q-56.35 -27.15 -55.85 -26.45 -55.3 -25.65 -55.6 -24.75 -55.9 -23.7 -57.0 -22.95 -58.7 -22.05 -61.05 -21.6" fill="#000000" fill-rule="evenodd" stroke="none"/>
  </g>
</svg>
