<svg xmlns="http://www.w3.org/2000/svg" xmlns:xlink="http://www.w3.org/1999/xlink" viewBox="0 0 593.25 1028.85" height="3888.567" width="593.25mm"><defs><path d="M-240.25 103.5q4.25-.45 6.7 3.6 2.55 3.8.1 6.9-1.9 2.65-9.3 6.2l-14.35 6.55q-6.9 3.35-10.1 1.45-2.85-2.05-2.9-6.05 0-4 13.65-10.1 11.7-5.95 16.2-8.55m-49.15-42.85q-4.9-.85-6.3-6.05-1.55-5.1 2.15-7.75 2.95-2.25 12.4-3.8l18.1-2.7q8.75-1.5 11.7 1.7 2.6 3.15-1.45 7.9-3.3 3.75-15.75 6.5l-20.85 4.2m-10.55-85.5q-4.7-1.55-5.3-6.9-.7-5.3 3.35-7.35 3.3-1.75 12.85-1.85l18.3.15q8.9-.1 11.3 3.55 2.1 3.5 1.25 8.55-.85 5-20.5 3l-21.25.85m25.15-95.1q18.55 3.6 28.7 11.75l-.3 1.15q-.6 5.3-3.7 7.65-3.1 2.3-10.85.05t-21.15-7.05q-8.7-2.05-9.4-9.95-.7-7.9 16.7-3.6m44.55-61.75q3.5 3.25 1.9 8.35-1.6 5.05-5.95 5.25-3.55.25-11.95-3.5l-15.95-7.5q-7.85-3.55-8.4-7.8-.5-4 5.45-5.5 5.9-1.55 16.05 2.85 13.3 5.8 18.85 7.85m426.2 316.3q-3.3-3.45-1.4-8.45 1.9-4.95 6.25-4.95 3.55-.05 11.7 4.2 4.75 2.45 15.5 8.4 7.65 4 7.95 8.25.25 4.05-5.75 5.15-5.95 1.25-15.85-3.7-12.95-6.55-18.4-8.9m52.1-51.05q-14.65-3.7-25.05-13.9-.35-6.75 1.55-8.05 3.25-2.1 10.85.55 7.65 2.7 20.7 8.25 8.6 2.55 8.85 10.5t-16.9 2.65m22-102.8q4.6 1.8 4.9 7.2.4 5.3-3.75 7.1-3.4 1.55-12.95 1.1L240-5q-8.9-.4-10.8-3.7-1.95-3.3-.35-6.85 1.55-3.6 19.9-4.05l21.3.35m5.8-80.1q4.85 1.15 6.25 6.4 1.35 5.2-1.8 7.45-3.15 2.25-11.2 3.1l-20.7 1.85q-8.85 1-11.6-2.35-2.35-3.3 1.9-7.8 3.5-3.55 16.1-5.6l21.05-3.05M227.9-147q-8.5 3.05-10.7-1.1-2.35-3.95.25-6.9 2.05-2.55 9.6-5.7l14.75-5.7q7.1-2.95 10.15-.85 2.75 2.2 2.6 6.15-.25 4-14.25 9.3-12 5.3-12.4 4.8" fill="#fff" fill-rule="evenodd" transform="translate(305.35 192.8)" id="a"/><path d="m-245.4 109.3 3.9-1.1q5.1-1.35 7.1 3.1 2.15 4.85-2.75 7.7-11.95 6.8-25.05 11.3-6.5 2.3-9.05-3.75-1.5-3.55 1.7-5.65 11.25-7.45 24.15-11.6m-47.05-51.85q-6.85-2.25-6.7-9.7.05-1.95 1.55-3.15 5-3.85 11.6-4.2l6.75-.7q10.6-1.65 21.25-1.5 2.55.35 4 2.35 2.4 3.4-.55 6.5-4.6 4.75-11.15 5.85l-26.75 4.55M-304.7-24.9q-4.7-2-4.95-7.15-.3-7.15 7.05-8.05 12.35-.8 24.75.35 5.25-.05 10.15 1.35 5.4 1.55 4.5 7.3-.15 1.15-.95 1.75-5.5 4.2-12.9 4.1-13.95 1-27.65.35m31.05-96.75q20.5 7 25.3 13.5l-.9 7.7q-1.6 1.2-3.5 1.2-6.15-.1-12.15-2.35l-16.65-6.5q-2.7-.95-5.05-2.85-4.6-3.75-3.45-9.4.3-1.6 1.9-2.1 7.25-1.9 14.5.8m47-59.05q4.2 4.95.55 10.6-1.2 1.9-4.65 2.95-3.45 1.05-11.55-1.6-8.1-2.65-16.25-9.25-8.2-6.6-7.85-10.4.05-.85.6-1.4 5.85-5.25 13.75-2.1 12.8 5.3 25.4 11.2m427 316.25q-4.05-6 .95-11.4 1.35-1.45 3.5-1.45 4.8 0 8.95 2.35 11.95 6.6 23.15 14.7 3.25 2.3 2.8 6.1-.1.85-.7 1.3-6.3 4.7-13.8 1.2-12.6-6.15-24.85-12.8m50.8-51.7q-8.1-2.35-15.9-6.35-6.95-3.6-11.05-9.05.55-2.65 1.95-5.05 2-3.35 5.9-3.5 6.25.6 11.85 3.5 7.95 3.95 16.1 7.6 3.7 1.55 6.1 4.65 3.25 4.1 1.15 8.9-.25.65-.9.9-7.7 2.2-15.2-1.6m24.9-103.75q4.15 1.3 5.3 5.55.45 1.8-.05 3.65-1.8 6.85-9.55 6.7-23 .8-26.7.7-3.75-.15-7.75-2.35t-3.35-8.5q.25-2.2 2.2-3 5.8-2.6 12.05-1.9l27.85-.85m-1.45-84.9q6.4 1.65 6.95 8.4.2 2.15-1.25 3.7-3.65 3.95-9.3 5.05-13.15 2.5-26.35 4.2-3.15.4-5.75-1.1-5.1-2.75-1.35-7.55 3.95-5.05 10.65-6.6l26.4-6.1m-50.35-42.75q-5.75.3-7.35-5.4-1.45-5.05 3.5-8 5.7-3.25 11.7-6.35 7-3.55 14.65-5.65 3.7-1.05 5.8 2.1 1.25 1.95.9 4.05-.7 4.05-4.8 6.15-12.25 6.4-24.4 13.1" fill="#fff" fill-rule="evenodd" transform="translate(309.65 193.1)" id="b"/><path d="M210.3-162.6q12.7-5.7 25.75-10.9 7.7-2.95 13.65 2.2.6.5.6 1.35.2 3.85-3.25 5.9-11.75 7.2-24.15 12.95-4.3 2.05-9.1 1.7-2.15-.2-3.4-1.75-4.6-5.75-.1-11.45m54.4 59.65q8.05-2.4 15.25 1.15.6.4.7 1.1 1.25 5.05-2.75 8.5-2.9 2.6-6.8 3.45-8.7 2.15-17.15 4.5-6.15 1.9-12.4 1.35-3.7-.85-5.1-4.55-.95-2.55-1-5.25 5-4.65 12.45-6.95 8.45-2.55 16.8-3.3m9.65 101q-13.6-2.8-27.75-2.9-6.25.2-11.85-2.8-1.9-.95-2-3.15-.2-6.3 4-8.2 4.15-1.95 7.9-1.8l26.55 2.65q7.75.45 9.05 7.35.35 1.9-.2 3.7-1.45 4.15-5.7 5.15m-10.6 87.45-25.9-8q-6.5-2.05-10.1-7.4-3.4-5.1 1.9-7.45 2.7-1.3 5.85-.7 13 2.7 25.95 6.15 5.55 1.55 8.9 5.75 1.35 1.65 1 3.8-1.05 6.65-7.6 7.85m-50.5 36q11.6 7.6 23.35 14.85 3.95 2.4 4.35 6.5.2 2.15-1.2 4-2.35 2.95-5.9 1.65-7.5-2.65-14.25-6.7l-11.2-7.2q-4.7-3.35-2.9-8.25 2.05-5.55 7.75-4.85M-236.2-169.3q-12.5-5.15-23.15-13.35-3.05-2.35-1.3-5.8 3-5.85 9.25-3.05 12.8 5.45 24.2 13.15 4.7 3.15 2.15 7.85-2.3 4.3-7.3 2.55l-3.85-1.35m-50.7 48.2 26.35 6.55q6.45 1.55 10.65 6.65 2.75 3.25.1 6.5-1.6 1.9-4.2 2.05-10.6-.65-21.05-3.05l-6.65-1.2q-6.6-.85-11.3-5.1-1.4-1.25-1.3-3.2.4-7.45 7.4-9.2m-18.3 81.25q13.7.35 27.55 2.4 7.4.45 12.55 5 .75.65.8 1.8.5 5.85-5 7l-10.25.6q-12.4.2-24.65-1.5-7.3-1.45-6.45-8.55.6-5.1 5.45-6.75m23.8 98.75q-7.45 2.15-14.5-.3-1.55-.6-1.75-2.2-.7-5.7 4.15-9.1 2.5-1.75 5.2-2.5l17.1-5.25q6.15-1.75 12.3-1.4 1.9.1 3.45 1.45l.3 7.7q-5.25 6.15-26.25 11.6m42.5 62.35q-13 5-26.1 9.35-8.15 2.5-13.55-3.15-.55-.55-.5-1.4-.1-3.85 8.55-9.85 8.65-5.95 16.9-8 8.3-2.05 11.65-.75 3.35 1.3 4.4 3.3 3.2 5.85-1.35 10.5" fill="#fff" fill-rule="evenodd" transform="translate(310.75 192.4)" id="c"/></defs><use xlink:href="#a" width="587.85" transform="translate(.003 .004) scale(1.00917)" height="340.25"/><use xlink:href="#b" width="591.2" transform="matrix(1.0034 0 0 1.0034 .012 342.36)" height="342.95"/><use xlink:href="#c" width="591.7" transform="matrix(1.00264 0 0 1.00264 -.011 686.65)" height="341.3"/></svg>